<?xml version="1.0" encoding="utf-8"?>
<!-- Svg Vector Icons : http://www.onlinewebfonts.com/icon -->
<!DOCTYPE svg PUBLIC "-//W3C//DTD SVG 1.1//EN" "http://www.w3.org/Graphics/SVG/1.1/DTD/svg11.dtd">
<svg version="1.1" xmlns="http://www.w3.org/2000/svg" xmlns:xlink="http://www.w3.org/1999/xlink" x="0px" y="0px" viewBox="0 0 256 256" enable-background="new 0 0 256 256" xml:space="preserve">
<metadata> Svg Vector Icons : http://www.onlinewebfonts.com/icon </metadata>
<g><g><g><path fill="#000000" d="M118.2,5.2C96.9,8.7,79.8,21.3,70.4,40.5c-4.8,9.7-6,14.9-6.4,26.1c-0.3,7.5-0.1,10.2,0.9,15.2c5.4,26.1,26,46,52.3,50.6c26.3,4.5,52.8-7.9,66.2-30.8c3.6-6.2,5.1-9.8,7-16.6c1.3-4.6,1.4-6.8,1.4-16.1c0-12.9-1.1-17.7-6.3-28.3c-7.1-14.6-19.2-25.8-34.4-31.7C141.6,5,128.2,3.6,118.2,5.2z"/><path fill="#000000" d="M83.6,155.5c-39.2,4.1-66,27.9-72.5,64.4c-0.6,3.8-1,9.6-1.1,17.2c-0.1,11.1,0,11.5,1.4,12.9l1.4,1.4H128h115.2l1.4-1.4c1.4-1.4,1.4-1.8,1.4-12.9c-0.1-12.9-1.1-20-4.1-29.1c-10.1-30.4-34.9-48.9-70.4-52.5C163.8,154.7,91.2,154.7,83.6,155.5z"/></g></g></g>
</svg>